<svg width="333" height="243" viewBox="0 0 333 243" fill="none" xmlns="http://www.w3.org/2000/svg">
<g clip-path="url(#clip0)">
<path d="M170.07 242.485C180.085 242.485 188.205 234.078 188.205 223.707C188.205 213.336 180.085 204.928 170.07 204.928C160.054 204.928 151.935 213.336 151.935 223.707C151.935 234.078 160.054 242.485 170.07 242.485Z" fill="#5485E6"/>
<path d="M278.408 241.43C288.553 238.275 299.339 234.985 307.385 227.485C314.575 220.782 319.429 210.548 316.451 200.496C313.478 190.466 304.575 183.777 295.382 180.45C290.169 178.564 284.714 177.517 279.261 176.695C273.334 175.801 267.381 175.068 261.43 174.364C237.335 171.51 213.15 169.767 188.874 169.134C176.895 168.821 164.919 168.829 152.938 169.009C142.239 169.17 130.971 169.166 121.045 164.457C113.327 160.795 106.321 154.134 104.171 145.379C101.688 135.274 106.267 124.983 112.836 117.664C116.298 113.806 120.345 110.56 124.52 107.574C129.048 104.335 133.735 101.326 138.523 98.5163C147.954 92.986 157.813 88.2794 167.999 84.4454C173.023 82.5535 178.123 80.9213 183.266 79.4155C187.61 78.144 191.966 76.8707 196.164 75.1384C204.279 71.7894 211.997 66.1167 214.06 56.8167C216.016 48.0025 212.719 38.4341 206.938 31.8862C200.251 24.3108 190.168 20.99 180.501 20.4527C169.648 19.8495 159.046 22.662 148.845 26.2314C137.966 30.0385 127.321 34.416 116.211 37.4997C105.195 40.5546 93.965 42.7161 82.6241 43.9646C77.0724 44.5767 71.3529 45.2679 65.7681 44.7993C61.0876 44.4066 56.431 42.9812 52.9815 39.5415C50.0238 36.5922 48.2618 32.5389 48.8676 28.2613C48.9776 27.4844 50.1174 27.8147 50.008 28.5869C49.2706 33.7939 52.6888 38.5919 56.9009 41.0497C61.7689 43.8902 67.6927 43.8941 73.1125 43.5693C84.8642 42.8343 96.5364 41.0871 108.008 38.3458C119.28 35.6798 130.15 31.8688 141.007 27.7976C151.318 23.9311 161.861 20.1574 172.877 19.3199C182.436 18.5933 192.491 20.0352 200.818 25.2078C208.136 29.7538 213.518 37.335 215.233 46.0346C216.909 54.5357 214.588 63.0923 208.373 69.0246C201.939 75.1669 193.116 77.7929 184.894 80.2115C174.466 83.279 164.261 86.8647 154.383 91.5205C144.371 96.2264 134.769 101.816 125.683 108.228C116.913 114.434 108.257 122.243 105.484 133.314C104.192 138.471 104.43 143.941 106.592 148.812C108.514 153.143 111.68 156.787 115.368 159.597C124.168 166.302 135.259 167.678 145.888 167.815C157.826 167.969 169.764 167.552 181.706 167.755C206.043 168.169 230.33 169.702 254.568 172.357C260.641 173.022 266.707 173.758 272.765 174.564C278.214 175.289 283.681 176.009 289.038 177.297C298.564 179.586 307.833 183.988 313.753 192.351C316.381 195.976 318.009 200.272 318.463 204.78C318.878 209.484 317.766 214.198 315.712 218.383C311.165 227.645 302.649 233.537 293.605 237.408C288.762 239.481 283.737 241.051 278.722 242.611C277.992 242.838 277.68 241.657 278.408 241.43L278.408 241.43Z" fill="#F2F2F2"/>
<path d="M49.6313 38.1689C54.8568 38.1689 59.0929 33.7825 59.0929 28.3716C59.0929 22.9606 54.8568 18.5742 49.6313 18.5742C44.4057 18.5742 40.1696 22.9606 40.1696 28.3716C40.1696 33.7825 44.4057 38.1689 49.6313 38.1689Z" fill="#F2F2F2"/>
<path d="M115.271 56.7431C120.497 56.7431 124.733 52.3567 124.733 46.9457C124.733 41.5348 120.497 37.1484 115.271 37.1484C110.046 37.1484 105.81 41.5348 105.81 46.9457C105.81 52.3567 110.046 56.7431 115.271 56.7431Z" fill="#F2F2F2"/>
<path d="M170.858 19.5947C176.084 19.5947 180.32 15.2083 180.32 9.79737C180.32 4.38643 176.084 0 170.858 0C165.633 0 161.397 4.38643 161.397 9.79737C161.397 15.2083 165.633 19.5947 170.858 19.5947Z" fill="#F2F2F2"/>
<path d="M205.551 61.2336C210.776 61.2336 215.013 56.8472 215.013 51.4362C215.013 46.0253 210.776 41.6389 205.551 41.6389C200.325 41.6389 196.089 46.0253 196.089 51.4362C196.089 56.8472 200.325 61.2336 205.551 61.2336Z" fill="#F2F2F2"/>
<path d="M158.637 109.404C163.863 109.404 168.099 105.018 168.099 99.6066C168.099 94.1957 163.863 89.8093 158.637 89.8093C153.412 89.8093 149.175 94.1957 149.175 99.6066C149.175 105.018 153.412 109.404 158.637 109.404Z" fill="#F2F2F2"/>
<path d="M99.1077 132.673C104.333 132.673 108.569 128.286 108.569 122.875C108.569 117.464 104.333 113.078 99.1077 113.078C93.8822 113.078 89.6461 117.464 89.6461 122.875C89.6461 128.286 93.8822 132.673 99.1077 132.673Z" fill="#F2F2F2"/>
<path d="M162.185 169.005C167.411 169.005 171.647 164.618 171.647 159.207C171.647 153.796 167.411 149.41 162.185 149.41C156.96 149.41 152.724 153.796 152.724 159.207C152.724 164.618 156.96 169.005 162.185 169.005Z" fill="#F2F2F2"/>
<path d="M229.993 189.416C235.219 189.416 239.455 185.029 239.455 179.619C239.455 174.208 235.219 169.821 229.993 169.821C224.768 169.821 220.532 174.208 220.532 179.619C220.532 185.029 224.768 189.416 229.993 189.416Z" fill="#F2F2F2"/>
<path d="M309.235 184.925C314.46 184.925 318.696 180.539 318.696 175.128C318.696 169.717 314.46 165.331 309.235 165.331C304.009 165.331 299.773 169.717 299.773 175.128C299.773 180.539 304.009 184.925 309.235 184.925Z" fill="#F2F2F2"/>
<path d="M168.127 27.7606C139.785 27.9679 116.579 51.8172 116.176 81.163C116.172 81.4339 116.171 83.339 116.171 85.8307C116.171 89.4841 117.573 92.9878 120.067 95.5712C122.562 98.1547 125.946 99.6062 129.474 99.6066H129.474C131.223 99.6062 132.955 99.249 134.57 98.5553C136.186 97.8616 137.654 96.8451 138.89 95.5638C140.126 94.2825 141.106 92.7616 141.774 91.0879C142.442 89.4142 142.785 87.6206 142.784 85.8096C142.782 84.1146 142.782 82.9415 142.782 82.8695C142.781 78.3341 143.92 73.8766 146.087 69.9355C148.255 65.9943 151.375 62.7053 155.143 60.3919C158.91 58.0785 163.194 56.8205 167.573 56.7415C171.953 56.6625 176.276 57.7654 180.119 59.9415C183.962 62.1177 187.191 65.2922 189.49 69.1528C191.789 73.0134 193.077 77.4271 193.229 81.9597C193.38 86.4923 192.39 90.9878 190.355 95.0038C188.319 99.0198 185.31 102.418 181.622 104.864L181.626 104.87C181.626 104.87 162.692 117.492 156.919 134.807L156.924 134.809C155.909 138.356 155.395 142.036 155.397 145.736C155.397 147.257 155.483 160.563 155.65 171.363C155.709 175.09 157.18 178.643 159.745 181.257C162.311 183.87 165.767 185.335 169.366 185.334H169.366C171.174 185.334 172.965 184.963 174.635 184.244C176.305 183.524 177.82 182.47 179.095 181.142C180.37 179.814 181.379 178.238 182.063 176.504C182.747 174.771 183.094 172.914 183.083 171.041C183.025 161.151 182.993 149.634 182.993 148.798C182.993 138.166 192.899 127.572 201.035 120.664C210.404 112.709 217.147 101.868 219.855 89.6392C220.454 87.1216 220.784 84.5433 220.84 81.951C220.84 74.8015 219.474 67.7226 216.82 61.1223C214.166 54.522 210.277 48.5306 205.378 43.4935C200.478 38.4563 194.664 34.4729 188.271 31.7727C181.878 29.0725 175.032 27.709 168.127 27.7606Z" fill="#5485E6"/>
<path d="M332.531 243H0.469386C0.345127 243 0.226083 242.948 0.138345 242.857C0.0506075 242.766 0.00133514 242.643 0.00133514 242.514C0.00133514 242.385 0.0506075 242.262 0.138345 242.171C0.226083 242.08 0.345127 242.028 0.469386 242.028H332.531C332.655 242.028 332.774 242.079 332.863 242.17C332.951 242.261 333 242.385 333 242.514C333 242.643 332.951 242.767 332.863 242.858C332.774 242.949 332.655 243 332.531 243Z" fill="#3F3D56"/>
<path d="M247.756 111.443C254.288 111.443 259.583 105.96 259.583 99.1967C259.583 92.4331 254.288 86.95 247.756 86.95C241.224 86.95 235.929 92.4331 235.929 99.1967C235.929 105.96 241.224 111.443 247.756 111.443Z" fill="#2F2E41"/>
<path d="M225.901 237.639H221.068L218.768 218.335H225.902L225.901 237.639Z" fill="#A0616A"/>
<path d="M217.616 236.209H226.937V242.286H211.747C211.747 241.488 211.898 240.698 212.193 239.96C212.488 239.223 212.921 238.553 213.466 237.989C214.011 237.424 214.658 236.977 215.37 236.671C216.082 236.366 216.845 236.209 217.616 236.209Z" fill="#2F2E41"/>
<path d="M263.353 237.639H258.52L256.221 218.335H263.354L263.353 237.639Z" fill="#A0616A"/>
<path d="M255.068 236.209H264.389V242.286H249.199C249.199 241.488 249.351 240.698 249.646 239.96C249.941 239.223 250.373 238.553 250.918 237.989C251.463 237.424 252.11 236.977 252.822 236.671C253.534 236.366 254.297 236.209 255.068 236.209Z" fill="#2F2E41"/>
<path d="M245.959 111.515C251.306 111.515 255.642 107.026 255.642 101.489C255.642 95.9512 251.306 91.4622 245.959 91.4622C240.611 91.4622 236.276 95.9512 236.276 101.489C236.276 107.026 240.611 111.515 245.959 111.515Z" fill="#A0616A"/>
<path d="M251.73 143.861L256.063 133.553C257.115 131.135 257.416 128.438 256.926 125.835C256.435 123.232 255.176 120.851 253.323 119.02C252.942 118.63 252.538 118.266 252.112 117.93C249.975 116.198 247.34 115.255 244.626 115.248C242.801 115.255 240.999 115.67 239.343 116.465C239.201 116.53 239.063 116.599 238.921 116.669C238.649 116.803 238.381 116.95 238.121 117.101C236.424 118.111 234.979 119.518 233.904 121.212C232.829 122.905 232.153 124.836 231.931 126.85L230.019 143.44C229.539 144.742 212.381 191.77 218.382 227.673C218.446 228.056 218.626 228.409 218.897 228.678C219.168 228.948 219.515 229.12 219.888 229.171L225.971 230.028C226.415 230.091 226.866 229.978 227.232 229.71C227.599 229.443 227.854 229.042 227.946 228.587L238.153 178.208C238.216 177.895 238.379 177.614 238.616 177.408C238.852 177.202 239.149 177.084 239.457 177.074C239.766 177.063 240.069 177.159 240.319 177.348C240.568 177.537 240.749 177.807 240.833 178.115L255.254 231.094C255.357 231.479 255.579 231.818 255.886 232.06C256.193 232.302 256.568 232.433 256.954 232.433C257.069 232.432 257.183 232.421 257.297 232.4L264.728 230.918C265.16 230.835 265.546 230.587 265.811 230.224C266.076 229.86 266.2 229.408 266.159 228.955C265.067 216.345 259.264 153.18 251.73 143.861Z" fill="#2F2E41"/>
<path d="M208.329 109.833C208.262 110.429 208.322 111.033 208.504 111.602C208.687 112.172 208.988 112.693 209.386 113.129C209.784 113.565 210.27 113.905 210.809 114.126C211.348 114.347 211.927 114.442 212.506 114.406L217.918 127.874L222.012 121.59L216.245 109.764C216.122 108.762 215.648 107.841 214.913 107.176C214.178 106.511 213.233 106.149 212.257 106.157C211.282 106.166 210.343 106.545 209.619 107.222C208.895 107.899 208.436 108.828 208.329 109.833L208.329 109.833Z" fill="#A0616A"/>
<path d="M245.422 157.422C245.997 157.351 246.551 157.15 247.043 156.833C247.535 156.516 247.955 156.092 248.271 155.589C248.588 155.087 248.795 154.518 248.876 153.924C248.958 153.33 248.913 152.725 248.744 152.15L260.131 143.562L253.276 140.904L243.513 149.467C242.6 149.824 241.846 150.516 241.393 151.411C240.94 152.306 240.82 153.342 241.055 154.322C241.29 155.303 241.865 156.16 242.67 156.731C243.475 157.303 244.454 157.548 245.422 157.422Z" fill="#A0616A"/>
<path d="M226.858 136.853C226.421 136.853 225.986 136.808 225.558 136.721C224.522 136.516 223.551 136.052 222.729 135.367C221.908 134.682 221.262 133.799 220.848 132.795L213.265 123.221C213.104 123.018 212.988 122.783 212.923 122.53C212.857 122.277 212.845 122.013 212.886 121.754C212.928 121.496 213.022 121.25 213.163 121.033C213.304 120.815 213.488 120.632 213.703 120.494L219.098 117.036C219.297 116.908 219.518 116.822 219.75 116.784C219.981 116.745 220.217 116.755 220.445 116.811C220.673 116.868 220.888 116.971 221.077 117.113C221.266 117.256 221.426 117.437 221.548 117.644L226.892 126.761L237.127 118.929C237.942 118.487 238.884 118.362 239.78 118.579C240.675 118.796 241.466 119.34 242.007 120.111C242.548 120.881 242.803 121.828 242.726 122.777C242.649 123.727 242.244 124.616 241.586 125.282L231.371 134.931C230.17 136.163 228.548 136.854 226.858 136.853Z" fill="#2F2E41"/>
<path d="M254.514 151.252C254.5 151.252 254.486 151.252 254.472 151.252C254.223 151.246 253.978 151.185 253.754 151.075C253.529 150.965 253.329 150.807 253.167 150.611L248.37 144.817C248.207 144.62 248.086 144.389 248.015 144.139C247.944 143.89 247.926 143.628 247.96 143.37C247.994 143.113 248.081 142.866 248.214 142.646C248.347 142.425 248.524 142.237 248.733 142.093L257.714 135.893L249.578 125.764C249.105 124.947 248.931 123.981 249.089 123.042C249.247 122.103 249.725 121.255 250.437 120.652C251.15 120.048 252.048 119.73 252.967 119.756C253.887 119.781 254.767 120.149 255.447 120.791L265.336 130.797C266.114 131.534 266.708 132.454 267.067 133.481C267.426 134.507 267.539 135.608 267.397 136.69C267.254 137.771 266.861 138.801 266.249 139.69C265.638 140.579 264.827 141.302 263.887 141.795L255.805 150.676C255.639 150.858 255.439 151.003 255.217 151.102C254.995 151.201 254.755 151.252 254.514 151.252Z" fill="#2F2E41"/>
<path d="M243.497 129.903C243.42 129.903 243.343 129.898 243.267 129.888C242.933 129.846 242.617 129.705 242.358 129.483C242.099 129.261 241.906 128.967 241.804 128.635L238.2 117.193C238.109 116.903 238.123 116.59 238.239 116.31C238.354 116.031 238.563 115.804 238.828 115.672L238.945 115.615C239.051 115.563 239.156 115.511 239.263 115.462C240.944 114.655 242.773 114.234 244.626 114.228C247.031 114.232 249.382 114.964 251.392 116.333C251.661 116.518 251.849 116.806 251.916 117.134C251.982 117.462 251.921 117.804 251.747 118.086L244.986 129.054C244.827 129.314 244.607 129.529 244.347 129.677C244.087 129.826 243.794 129.903 243.497 129.903Z" fill="#E6E6E6"/>
<path d="M257.081 93.7294C259.218 93.7294 260.951 91.9352 260.951 89.722C260.951 87.5087 259.218 85.7146 257.081 85.7146C254.943 85.7146 253.211 87.5087 253.211 89.722C253.211 91.9352 254.943 93.7294 257.081 93.7294Z" fill="#2F2E41"/>
<path d="M243.814 85.3171C241.095 85.3171 238.488 86.4354 236.566 88.4258C234.644 90.4163 233.564 93.116 233.564 95.9309V100.421H238.897L241.448 95.931L242.214 100.421H258.4L254.064 95.9309C254.064 93.116 252.984 90.4163 251.062 88.4258C249.139 86.4354 246.532 85.3171 243.814 85.3171Z" fill="#2F2E41"/>
<path d="M259.07 86.977C259.498 85.5913 260.384 84.4062 261.572 83.63C262.76 82.8538 264.175 82.5363 265.567 82.7333C268.033 83.1602 269.983 85.213 271.145 87.5058C272.307 89.7986 272.844 92.3647 273.625 94.8245C274.406 97.2842 275.514 99.7573 277.485 101.35C279.457 102.942 282.483 103.374 284.42 101.736C284.199 103.443 283.465 105.035 282.322 106.286C281.179 107.537 279.685 108.385 278.052 108.709C276.418 109.033 274.728 108.817 273.219 108.092C271.71 107.367 270.46 106.169 269.645 104.667C268.623 102.785 268.359 100.578 268.056 98.4415C267.753 96.3047 267.36 94.0939 266.14 92.3424C264.92 90.5909 262.636 89.4469 260.698 90.2447L259.07 86.977Z" fill="#2F2E41"/>
<path d="M133.23 93.0907C129.702 93.0903 126.318 91.6387 123.824 89.0553C121.329 86.4719 119.927 82.9682 119.927 79.3148C119.927 76.8231 119.929 74.918 119.932 74.647C120.044 66.1125 122.12 57.7286 125.987 50.1909C119.634 59.1975 116.14 70.0261 115.99 81.1786C115.986 81.4496 115.984 83.3546 115.985 85.8463C115.985 89.4998 117.386 93.0035 119.881 95.5869C122.376 98.1703 125.76 99.6219 129.288 99.6223C132.187 99.6211 135.007 98.6401 137.318 96.8283C139.63 95.0165 141.307 92.4728 142.096 89.5838C139.66 91.8457 136.502 93.0948 133.23 93.0907Z" fill="#3F3D56"/>
<path d="M169.029 56.7877C173.108 56.9894 177.078 58.2132 180.6 60.3539C184.121 62.4947 187.088 65.4884 189.246 69.0781C191.404 72.6678 192.689 76.7462 192.989 80.9631C193.29 85.18 192.598 89.4094 190.972 93.2882C193.323 90.4285 195.052 87.0773 196.039 83.4632C197.027 79.849 197.25 76.0569 196.694 72.3453C196.137 68.6337 194.815 65.09 192.816 61.9556C190.817 58.8213 188.189 56.1701 185.112 54.1827C182.034 52.1954 178.578 50.9186 174.98 50.4395C171.383 49.9604 167.728 50.2902 164.264 51.4064C160.801 52.5226 157.611 54.399 154.911 56.9077C152.211 59.4163 150.066 62.4982 148.621 65.9433C151.118 62.9009 154.257 60.4932 157.796 58.9058C161.334 57.3184 165.177 56.5938 169.029 56.7877Z" fill="#3F3D56"/>
<path d="M173.122 178.818C169.523 178.819 166.067 177.354 163.502 174.741C160.936 172.127 159.465 168.574 159.406 164.847C159.24 154.047 159.153 140.741 159.153 139.22C159.151 135.52 159.665 131.84 160.68 128.293L160.675 128.291C161.275 126.511 161.999 124.778 162.841 123.107C160.255 126.676 158.196 130.625 156.733 134.823L156.738 134.824C155.723 138.371 155.208 142.052 155.211 145.752C155.211 147.272 155.297 160.579 155.464 171.379C155.523 175.105 156.993 178.659 159.559 181.272C162.125 183.886 165.58 185.35 169.18 185.349C172.147 185.349 175.035 184.352 177.409 182.508C179.783 180.665 181.516 178.074 182.348 175.124C179.826 177.505 176.535 178.823 173.122 178.818Z" fill="#3F3D56"/>
<path d="M49.8868 237.825L54.7197 237.825L57.0193 218.521L49.8856 218.521L49.8868 237.825Z" fill="#FFB8B8"/>
<path d="M64.0413 242.472L48.8511 242.472L48.8509 236.395L58.1721 236.395C59.7286 236.395 61.2214 237.035 62.3221 238.175C63.4228 239.314 64.0412 240.86 64.0413 242.472L64.0413 242.472Z" fill="#2F2E41"/>
<path d="M32.5405 237.825L37.3734 237.825L39.673 218.521L32.5393 218.521L32.5405 237.825Z" fill="#FFB8B8"/>
<path d="M46.6949 242.472L31.5048 242.472L31.5046 236.395L40.8258 236.395C42.3823 236.395 43.8751 237.035 44.9758 238.175C46.0765 239.314 46.6949 240.86 46.6949 242.472L46.6949 242.472Z" fill="#2F2E41"/>
<path d="M36.7641 231.888L32.0431 231.631C31.7997 231.618 31.5612 231.555 31.3415 231.445C31.1218 231.336 30.9252 231.182 30.7632 230.994C30.6012 230.805 30.4769 230.585 30.3976 230.347C30.3183 230.108 30.2855 229.855 30.3012 229.603L35.9437 164.914L61.9281 172.174L64.4316 171.467L56.6027 228.735C56.536 229.165 56.3295 229.56 56.0171 229.853C55.7047 230.145 55.3052 230.319 54.8846 230.345L49.7955 230.59C49.541 230.605 49.2864 230.565 49.0477 230.472C48.809 230.38 48.5914 230.237 48.4087 230.053C48.226 229.869 48.0821 229.648 47.9861 229.404C47.8902 229.159 47.8443 228.897 47.8513 228.633L48.7734 194.262C48.7777 194.103 48.7244 193.948 48.6239 193.828C48.5235 193.708 48.3832 193.631 48.2307 193.612C48.0781 193.594 47.9245 193.635 47.8 193.728C47.6754 193.821 47.5891 193.959 47.5579 194.115L38.6652 230.37C38.5813 230.8 38.3558 231.187 38.0274 231.464C37.6989 231.742 37.2877 231.892 36.8639 231.891C36.8308 231.891 36.7975 231.89 36.7641 231.888Z" fill="#2F2E41"/>
<path d="M50.7545 111.984C56.1022 111.984 60.4373 107.495 60.4373 101.957C60.4373 96.4201 56.1022 91.9311 50.7545 91.9311C45.4069 91.9311 41.0717 96.4201 41.0717 101.957C41.0717 107.495 45.4069 111.984 50.7545 111.984Z" fill="#FFB8B8"/>
<path d="M34.6333 131.414L35.698 155.201L36.0828 163.854C36.0982 164.231 36.2217 164.595 36.4376 164.898C36.6535 165.202 36.952 165.432 37.2948 165.559L62.2641 174.925C62.4658 175.003 62.6795 175.041 62.8947 175.039C63.1406 175.041 63.3843 174.991 63.6111 174.892C63.8379 174.794 64.0433 174.649 64.2149 174.466C64.3865 174.284 64.5208 174.068 64.6099 173.83C64.699 173.593 64.7409 173.339 64.7333 173.085L63.7096 130.316C63.6423 126.807 62.395 123.433 60.1824 120.774C57.9699 118.115 54.9309 116.339 51.5894 115.752C51.3478 115.714 51.1021 115.676 50.8564 115.642C48.7844 115.375 46.6811 115.583 44.6947 116.248C42.7082 116.914 40.8868 118.023 39.3586 119.496C37.7761 121.003 36.5327 122.852 35.7162 124.911C34.8997 126.971 34.53 129.191 34.6333 131.414L34.6333 131.414Z" fill="#CCCCCC"/>
<path d="M74.1918 170.179C73.6012 169.989 73.0617 169.659 72.6162 169.215C72.1707 168.771 71.8316 168.225 71.626 167.621C71.4204 167.017 71.3539 166.372 71.4319 165.737C71.5099 165.102 71.7302 164.494 72.0753 163.963L63.6079 152.304L70.9147 151.836L77.8353 162.979C78.5762 163.572 79.0917 164.416 79.2915 165.364C79.4913 166.311 79.3625 167.301 78.9279 168.16C78.4932 169.019 77.7804 169.692 76.9143 170.061C76.0483 170.43 75.0845 170.472 74.1918 170.179H74.1918Z" fill="#FFB8B8"/>
<path d="M68.2384 161.853C68.0141 161.759 67.81 161.619 67.6381 161.443C67.4661 161.266 67.3297 161.056 67.2366 160.825L54.4799 129.353C54.2296 128.737 54.099 128.076 54.0956 127.407C54.0922 126.739 54.216 126.076 54.4601 125.457C54.7041 124.838 55.0635 124.275 55.5177 123.8C55.972 123.325 56.5122 122.948 57.1075 122.689C57.7027 122.43 58.3414 122.296 58.987 122.293C59.6325 122.29 60.2723 122.418 60.8698 122.672C61.4673 122.925 62.0107 123.297 62.4691 123.768C62.9275 124.239 63.2917 124.798 63.5411 125.415L76.2978 156.887C76.4864 157.354 76.4885 157.879 76.3037 158.347C76.1189 158.815 75.7623 159.188 75.3121 159.385L69.6487 161.846C69.4258 161.944 69.1863 161.995 68.9442 161.996C68.7021 161.997 68.4622 161.949 68.2384 161.853L68.2384 161.853Z" fill="#CCCCCC"/>
<path d="M47.6414 160.743L59.8939 136.45C60.1302 135.983 60.5358 135.632 61.0218 135.474C61.5077 135.316 62.0343 135.364 62.486 135.608L80.2705 145.225C80.7217 145.47 81.0607 145.89 81.2132 146.393C81.3657 146.896 81.3192 147.442 81.084 147.909L68.8315 172.202C68.5952 172.67 68.1896 173.021 67.7036 173.179C67.2177 173.337 66.6911 173.288 66.2394 173.045L48.4549 163.427C48.0037 163.182 47.6647 162.762 47.5122 162.259C47.3597 161.756 47.4062 161.211 47.6414 160.743Z" fill="#3F3D56"/>
<path d="M55.8584 149.644C55.6406 149.045 55.2905 148.507 54.8361 148.072C54.3817 147.638 53.8356 147.32 53.2413 147.143C52.647 146.966 52.0211 146.935 51.4133 147.054C50.8056 147.172 50.2329 147.435 49.7411 147.823L38.0014 139.759L37.9814 147.34L49.1327 153.835C49.7482 154.566 50.5926 155.049 51.5178 155.2C52.4429 155.35 53.3897 155.159 54.1921 154.659C54.9945 154.159 55.6013 153.382 55.9059 152.465C56.2106 151.548 56.1938 150.549 55.8584 149.644Z" fill="#FFB8B8"/>
<path d="M41.0155 151.349L31.4211 143.479C30.3832 143.118 29.4453 142.502 28.688 141.683C27.9308 140.864 27.3767 139.868 27.0734 138.778C26.7701 137.689 26.7266 136.54 26.9466 135.429C27.1667 134.318 27.6437 133.28 28.3368 132.402L37.0483 120.58C37.6536 119.814 38.505 119.299 39.4468 119.13C40.3885 118.96 41.3578 119.147 42.1773 119.657C42.9968 120.166 43.6119 120.964 43.9101 121.904C44.2083 122.845 44.1697 123.865 43.8013 124.778L36.9086 136.454L47.0381 141.429C47.2736 141.544 47.4828 141.71 47.6517 141.916C47.8207 142.121 47.9456 142.362 48.0182 142.621C48.0908 142.88 48.1094 143.153 48.0728 143.42C48.0363 143.687 47.9454 143.943 47.8061 144.172L43.7172 150.872C43.579 151.098 43.3964 151.292 43.1814 151.44C42.9663 151.589 42.7235 151.689 42.4688 151.734C42.4587 151.736 42.4485 151.738 42.4383 151.739C42.188 151.778 41.9326 151.764 41.6878 151.697C41.4431 151.63 41.2143 151.511 41.0155 151.349Z" fill="#CCCCCC"/>
<path d="M43.438 108.671C43.3964 108.546 43.3832 108.411 43.3994 108.28C43.4156 108.148 43.4608 108.021 43.5314 107.91C43.6021 107.799 43.6963 107.706 43.807 107.639C43.9176 107.571 44.0417 107.531 44.1698 107.521C44.432 107.535 44.6887 107.605 44.9242 107.725C45.1598 107.846 45.3693 108.014 45.5402 108.221C45.8906 108.639 46.2986 109.002 46.7509 109.297C47.2193 109.542 47.8546 109.507 48.1216 109.041C48.3724 108.603 48.2006 108.017 48.0488 107.508C47.6625 106.215 47.4464 104.873 47.4062 103.52C47.3625 102.01 47.5683 100.433 48.3759 99.2549C49.4182 97.7344 51.282 97.1572 53.0458 97.199C54.8096 97.2409 56.5448 97.8047 58.2919 98.1611C58.8951 98.2841 59.604 98.347 60.0074 97.863C60.4364 97.3483 60.2788 96.5152 60.0964 95.8203C59.6229 94.017 59.1207 92.1526 58.0206 90.6962C56.8313 89.1828 55.1323 88.1924 53.2659 87.9243C51.474 87.6944 49.655 87.9083 47.9585 88.5482C45.1945 89.4503 42.7624 91.2047 40.9874 93.5769C39.1576 96.0997 38.3669 99.27 38.7883 102.395C39.1999 105.116 40.5926 107.575 42.6856 109.275L43.438 108.671Z" fill="#2F2E41"/>
<path d="M166.074 237.905C163.498 236.743 161.218 234.977 159.414 232.746C157.61 230.516 156.331 227.882 155.678 225.052C155.026 222.222 155.017 219.273 155.653 216.439C156.29 213.605 157.553 210.963 159.345 208.721C157.268 210.292 155.537 212.301 154.268 214.617C152.998 216.933 152.219 219.501 151.982 222.153C151.744 224.804 152.054 227.478 152.891 229.996C153.727 232.513 155.072 234.818 156.834 236.757C158.597 238.696 160.738 240.224 163.114 241.241C165.491 242.258 168.05 242.739 170.62 242.654C173.19 242.568 175.713 241.918 178.022 240.745C180.331 239.573 182.373 237.905 184.011 235.854C181.455 237.788 178.454 238.996 175.307 239.355C172.16 239.715 168.977 239.215 166.074 237.905Z" fill="#3F3D56"/>
</g>
<defs>
<clipPath id="clip0">
<rect width="333" height="243" fill="white"/>
</clipPath>
</defs>
</svg>
