<svg width="591" height="443" viewBox="0 0 591 443" fill="none" xmlns="http://www.w3.org/2000/svg">
<g clip-path="url(#clip0)">
<path d="M590.146 439.603H0.854046C0.627539 439.603 0.410308 439.509 0.250144 439.343C0.089979 439.177 0 438.951 0 438.716C0 438.481 0.089979 438.256 0.250144 438.09C0.410308 437.924 0.627539 437.83 0.854046 437.83H590.146C590.372 437.83 590.59 437.924 590.75 438.09C590.91 438.256 591 438.481 591 438.716C591 438.951 590.91 439.177 590.75 439.343C590.59 439.509 590.372 439.603 590.146 439.603Z" fill="#CCCCCC"/>
<path d="M531.818 285.045H185.076C183.603 285.045 182.191 285.651 181.15 286.732C180.109 287.812 179.524 289.277 179.524 290.805C179.524 292.333 180.109 293.798 181.15 294.878C182.191 295.958 183.603 296.565 185.076 296.565H194.897V434.372C194.897 435.9 195.482 437.365 196.523 438.446C197.564 439.526 198.976 440.133 200.448 440.133C201.921 440.133 203.333 439.526 204.374 438.446C205.415 437.365 206 435.9 206 434.372L206.084 296.565H510.04V434.372C510.04 435.9 510.625 437.365 511.666 438.446C512.707 439.526 514.119 440.133 515.591 440.133C517.064 440.133 518.476 439.526 519.517 438.446C520.558 437.365 521.143 435.9 521.143 434.372V299.603L522.758 296.565H531.818C533.291 296.565 534.703 295.958 535.744 294.878C536.785 293.798 537.37 292.333 537.37 290.805C537.37 289.277 536.785 287.812 535.744 286.732C534.703 285.651 533.291 285.045 531.818 285.045Z" fill="#CCCCCC"/>
<path d="M377.313 288.059H272.28C270.247 288.057 268.297 287.217 266.859 285.725C265.421 284.233 264.612 282.21 264.61 280.099V220.094C264.612 217.984 265.421 215.961 266.859 214.468C268.297 212.976 270.247 212.137 272.28 212.134H377.313C379.346 212.137 381.296 212.976 382.734 214.468C384.172 215.961 384.981 217.984 384.983 220.094V280.099C384.981 282.21 384.172 284.233 382.734 285.725C381.296 287.217 379.346 288.057 377.313 288.059Z" fill="#3F3D56"/>
<path d="M377.312 218.261H272.281C271.812 218.262 271.363 218.455 271.032 218.799C270.701 219.143 270.514 219.609 270.513 220.095V280.101C270.514 280.587 270.701 281.053 271.032 281.397C271.363 281.741 271.812 281.934 272.281 281.935H377.312C377.781 281.934 378.23 281.741 378.561 281.397C378.892 281.053 379.079 280.587 379.08 280.101V220.095C379.079 219.609 378.892 219.143 378.561 218.799C378.23 218.455 377.781 218.262 377.312 218.261Z" fill="white"/>
<path d="M333.754 260.744C333.754 260.744 321.181 257.738 314.266 263.25C307.35 268.761 323.067 281.288 323.067 281.288L333.754 260.744Z" fill="#2F2E41"/>
<path d="M325.412 255.064C331.963 255.064 337.273 249.554 337.273 242.757C337.273 235.96 331.963 230.45 325.412 230.45C318.862 230.45 313.552 235.96 313.552 242.757C313.552 249.554 318.862 255.064 325.412 255.064Z" fill="#A0616A"/>
<path d="M316.241 225.481C317.032 224.088 318.178 222.949 319.554 222.189C320.929 221.43 322.48 221.08 324.036 221.177C325.662 221.389 327.25 221.85 328.746 222.546L336.499 225.684C338.506 226.496 340.703 227.491 341.573 229.535C342.381 231.432 341.779 233.622 341.168 235.597L338.267 244.985C337.946 242.861 337.395 240.78 336.624 238.784C335.84 236.774 334.424 235.099 332.606 234.03C330.592 232.958 328.218 232.981 325.957 233.093C322.755 233.253 319.274 233.676 316.999 236.02C315.791 237.35 314.973 239.01 314.638 240.805C314.309 242.59 314.143 244.403 314.143 246.221C312.83 243.879 311.724 241.418 310.838 238.869C310.11 236.971 309.695 234.959 309.61 232.918C309.534 230.86 310.193 228.845 311.459 227.258C312.102 226.483 312.941 225.91 313.881 225.602C314.821 225.295 315.825 225.267 316.78 225.52L316.241 225.481Z" fill="#2F2E41"/>
<path d="M353.731 271.416C353.62 271 353.393 270.628 353.078 270.346C352.764 270.064 352.376 269.884 351.964 269.83C351.936 269.81 351.908 269.792 351.878 269.776L334.173 259.48C333.667 259.186 333.072 259.106 332.511 259.256C331.949 259.406 331.465 259.774 331.159 260.285L326.317 268.421L319.023 260.852L318.907 260.732C318.533 260.344 318.039 260.104 317.512 260.057C316.984 260.009 316.457 260.155 316.024 260.47L301.472 271.044C301.447 271.044 301.421 271.053 301.396 271.053C300.699 271.173 300.063 271.536 299.593 272.083C299.122 272.629 298.845 273.325 298.808 274.057L298.432 281.935H356.541L353.731 271.416Z" fill="#8363FF"/>
<path d="M386.164 280.712H374.952C374.952 280.387 374.828 280.075 374.607 279.846C374.385 279.616 374.085 279.487 373.772 279.487H370.232C369.919 279.487 369.619 279.616 369.397 279.846C369.176 280.075 369.052 280.387 369.052 280.712H365.511C365.511 280.387 365.387 280.075 365.166 279.846C364.944 279.616 364.644 279.487 364.331 279.487H360.791C360.478 279.487 360.177 279.616 359.956 279.846C359.735 280.075 359.61 280.387 359.61 280.712H356.07C356.07 280.387 355.946 280.075 355.724 279.846C355.503 279.616 355.203 279.487 354.89 279.487H351.35C351.037 279.487 350.736 279.616 350.515 279.846C350.294 280.075 350.169 280.387 350.169 280.712H346.629C346.629 280.387 346.505 280.075 346.283 279.846C346.062 279.616 345.762 279.487 345.449 279.487H341.908C341.595 279.487 341.295 279.616 341.074 279.846C340.853 280.075 340.728 280.387 340.728 280.712H337.188C337.188 280.387 337.064 280.075 336.842 279.846C336.621 279.616 336.321 279.487 336.008 279.487H332.467C332.154 279.487 331.854 279.616 331.633 279.846C331.412 280.075 331.287 280.387 331.287 280.712H327.747C327.747 280.387 327.622 280.075 327.401 279.846C327.18 279.616 326.88 279.487 326.567 279.487H323.026C322.713 279.487 322.413 279.616 322.192 279.846C321.97 280.075 321.846 280.387 321.846 280.712H318.306C318.306 280.387 318.181 280.075 317.96 279.846C317.739 279.616 317.439 279.487 317.126 279.487H313.585C313.272 279.487 312.972 279.616 312.751 279.846C312.529 280.075 312.405 280.387 312.405 280.712H308.865C308.865 280.387 308.74 280.075 308.519 279.846C308.298 279.616 307.997 279.487 307.685 279.487H304.144C303.831 279.487 303.531 279.616 303.31 279.846C303.088 280.075 302.964 280.387 302.964 280.712H299.424C299.424 280.387 299.299 280.075 299.078 279.846C298.857 279.616 298.556 279.487 298.243 279.487H294.703C294.39 279.487 294.09 279.616 293.869 279.846C293.647 280.075 293.523 280.387 293.523 280.712H289.982C289.982 280.387 289.858 280.075 289.637 279.846C289.415 279.616 289.115 279.487 288.802 279.487H285.262C284.949 279.487 284.649 279.616 284.427 279.846C284.206 280.075 284.082 280.387 284.082 280.712H280.541C280.541 280.387 280.417 280.075 280.196 279.846C279.974 279.616 279.674 279.487 279.361 279.487H275.821C275.508 279.487 275.208 279.616 274.986 279.846C274.765 280.075 274.641 280.387 274.641 280.712H263.429C262.491 280.713 261.592 281.101 260.93 281.79C260.267 282.478 259.894 283.412 259.894 284.385C259.894 285.359 260.267 286.292 260.93 286.981C261.592 287.67 262.491 288.058 263.429 288.059H386.164C387.103 288.059 388.003 287.672 388.667 286.983C389.331 286.294 389.704 285.36 389.704 284.385C389.704 283.411 389.331 282.477 388.667 281.788C388.003 281.099 387.103 280.712 386.164 280.712Z" fill="#3F3D56"/>
<path d="M245.179 259.377V283.771H186.282C184.704 283.828 183.131 283.554 181.657 282.967C180.183 282.38 178.838 281.491 177.702 280.352C176.567 279.214 175.663 277.85 175.046 276.342C174.43 274.834 174.112 273.212 174.112 271.574C174.112 269.935 174.43 268.314 175.046 266.806C175.663 265.297 176.567 263.934 177.702 262.795C178.838 261.657 180.183 260.768 181.657 260.181C183.131 259.593 184.704 259.32 186.282 259.377H245.179Z" fill="#F2F2F2"/>
<path d="M246.626 283.583C246.625 283.832 246.53 284.071 246.361 284.246C246.191 284.422 245.961 284.521 245.721 284.521H185.233C181.948 284.521 178.797 283.167 176.474 280.757C174.151 278.346 172.846 275.077 172.846 271.668C172.846 268.259 174.151 264.989 176.474 262.579C178.797 260.168 181.948 258.814 185.233 258.814H245.721C245.961 258.814 246.191 258.913 246.361 259.089C246.53 259.265 246.626 259.503 246.626 259.752C246.626 260.001 246.53 260.24 246.361 260.416C246.191 260.592 245.961 260.69 245.721 260.69H185.233C182.429 260.693 179.741 261.851 177.759 263.909C175.777 265.967 174.664 268.758 174.664 271.668C174.664 274.577 175.777 277.368 177.759 279.426C179.741 281.485 182.429 282.642 185.233 282.645H245.721C245.961 282.645 246.191 282.744 246.361 282.92C246.53 283.096 246.625 283.334 246.626 283.583Z" fill="#8363FF"/>
<path d="M245.179 265.005H181.887C181.864 265.006 181.84 265.001 181.818 264.991C181.796 264.982 181.776 264.968 181.759 264.951C181.742 264.934 181.728 264.913 181.719 264.89C181.71 264.867 181.705 264.843 181.705 264.818C181.705 264.793 181.71 264.769 181.719 264.746C181.728 264.723 181.742 264.703 181.759 264.685C181.776 264.668 181.796 264.654 181.818 264.645C181.84 264.635 181.864 264.631 181.887 264.631H245.179C245.227 264.631 245.272 264.651 245.306 264.686C245.34 264.721 245.358 264.769 245.358 264.818C245.358 264.868 245.34 264.915 245.306 264.95C245.272 264.985 245.227 265.005 245.179 265.005Z" fill="#CCCCCC"/>
<path d="M245.179 269.509H181.887C181.864 269.509 181.84 269.504 181.818 269.495C181.796 269.486 181.776 269.472 181.759 269.455C181.742 269.437 181.728 269.416 181.719 269.394C181.71 269.371 181.705 269.346 181.705 269.322C181.705 269.297 181.71 269.273 181.719 269.25C181.728 269.227 181.742 269.206 181.759 269.189C181.776 269.171 181.796 269.158 181.818 269.148C181.84 269.139 181.864 269.134 181.887 269.134H245.179C245.227 269.135 245.272 269.155 245.306 269.19C245.34 269.225 245.358 269.272 245.358 269.322C245.358 269.371 245.34 269.419 245.306 269.454C245.272 269.489 245.227 269.509 245.179 269.509Z" fill="#CCCCCC"/>
<path d="M245.179 274.012H181.887C181.864 274.013 181.84 274.008 181.818 273.998C181.796 273.989 181.776 273.975 181.759 273.958C181.742 273.941 181.728 273.92 181.719 273.897C181.71 273.874 181.705 273.85 181.705 273.825C181.705 273.8 181.71 273.776 181.719 273.753C181.728 273.73 181.742 273.71 181.759 273.692C181.776 273.675 181.796 273.661 181.818 273.652C181.84 273.642 181.864 273.638 181.887 273.638H245.179C245.227 273.638 245.272 273.658 245.306 273.693C245.34 273.728 245.358 273.776 245.358 273.825C245.358 273.875 245.34 273.922 245.306 273.957C245.272 273.992 245.227 274.012 245.179 274.012Z" fill="#CCCCCC"/>
<path d="M245.179 278.516H181.887C181.864 278.516 181.84 278.511 181.818 278.502C181.796 278.493 181.776 278.479 181.759 278.461C181.742 278.444 181.728 278.423 181.719 278.401C181.71 278.378 181.705 278.353 181.705 278.329C181.705 278.304 181.71 278.279 181.719 278.257C181.728 278.234 181.742 278.213 181.759 278.196C181.776 278.178 181.796 278.165 181.818 278.155C181.84 278.146 181.864 278.141 181.887 278.141H245.179C245.227 278.142 245.272 278.162 245.306 278.197C245.34 278.232 245.358 278.279 245.358 278.329C245.358 278.378 245.34 278.425 245.306 278.461C245.272 278.496 245.227 278.515 245.179 278.516Z" fill="#CCCCCC"/>
<path d="M234.076 233.677V258.07H175.179C173.601 258.127 172.028 257.854 170.554 257.267C169.08 256.679 167.735 255.79 166.6 254.652C165.464 253.514 164.561 252.15 163.944 250.642C163.327 249.134 163.009 247.512 163.009 245.874C163.009 244.235 163.327 242.613 163.944 241.105C164.561 239.597 165.464 238.233 166.6 237.095C167.735 235.957 169.08 235.068 170.554 234.48C172.028 233.893 173.601 233.62 175.179 233.677H234.076Z" fill="#F2F2F2"/>
<path d="M235.523 257.883C235.523 258.132 235.428 258.37 235.258 258.546C235.088 258.722 234.858 258.821 234.619 258.821H174.13C172.504 258.821 170.893 258.488 169.39 257.843C167.887 257.197 166.522 256.25 165.371 255.056C164.221 253.863 163.309 252.446 162.686 250.886C162.064 249.327 161.743 247.655 161.743 245.967C161.743 244.279 162.064 242.608 162.686 241.048C163.309 239.489 164.221 238.072 165.371 236.878C166.522 235.685 167.887 234.738 169.39 234.092C170.893 233.446 172.504 233.114 174.13 233.114H234.619C234.858 233.114 235.088 233.213 235.258 233.388C235.428 233.564 235.523 233.803 235.523 234.052C235.523 234.301 235.428 234.539 235.258 234.715C235.088 234.891 234.858 234.99 234.619 234.99H174.13C171.326 234.993 168.638 236.15 166.656 238.209C164.674 240.267 163.561 243.058 163.561 245.967C163.561 248.877 164.674 251.668 166.656 253.726C168.638 255.784 171.326 256.942 174.13 256.945H234.619C234.858 256.945 235.088 257.044 235.258 257.219C235.427 257.395 235.523 257.634 235.523 257.883Z" fill="#3F3D56"/>
<path d="M234.076 239.305H170.785C170.761 239.305 170.737 239.301 170.715 239.291C170.693 239.282 170.673 239.268 170.656 239.251C170.639 239.233 170.626 239.213 170.617 239.19C170.607 239.167 170.603 239.143 170.603 239.118C170.603 239.093 170.607 239.069 170.617 239.046C170.626 239.023 170.639 239.002 170.656 238.985C170.673 238.968 170.693 238.954 170.715 238.945C170.737 238.935 170.761 238.93 170.785 238.931H234.076C234.124 238.931 234.17 238.951 234.203 238.986C234.237 239.021 234.256 239.068 234.256 239.118C234.256 239.167 234.237 239.215 234.203 239.25C234.17 239.285 234.124 239.305 234.076 239.305Z" fill="#CCCCCC"/>
<path d="M234.076 243.809H170.785C170.761 243.809 170.737 243.804 170.715 243.795C170.693 243.785 170.673 243.772 170.656 243.754C170.639 243.737 170.626 243.716 170.617 243.693C170.607 243.67 170.603 243.646 170.603 243.621C170.603 243.597 170.607 243.572 170.617 243.549C170.626 243.527 170.639 243.506 170.656 243.488C170.673 243.471 170.693 243.457 170.715 243.448C170.737 243.439 170.761 243.434 170.785 243.434H234.076C234.124 243.434 234.17 243.454 234.203 243.489C234.237 243.524 234.256 243.572 234.256 243.621C234.256 243.671 234.237 243.718 234.203 243.753C234.17 243.788 234.124 243.808 234.076 243.809Z" fill="#CCCCCC"/>
<path d="M234.076 248.312H170.785C170.761 248.312 170.737 248.308 170.715 248.298C170.693 248.289 170.673 248.275 170.656 248.258C170.639 248.24 170.626 248.22 170.617 248.197C170.607 248.174 170.603 248.15 170.603 248.125C170.603 248.1 170.607 248.076 170.617 248.053C170.626 248.03 170.639 248.009 170.656 247.992C170.673 247.975 170.693 247.961 170.715 247.951C170.737 247.942 170.761 247.937 170.785 247.938H234.076C234.124 247.938 234.17 247.958 234.203 247.993C234.237 248.028 234.256 248.075 234.256 248.125C234.256 248.174 234.237 248.222 234.203 248.257C234.17 248.292 234.124 248.312 234.076 248.312Z" fill="#CCCCCC"/>
<path d="M234.076 252.815H170.785C170.761 252.816 170.737 252.811 170.715 252.802C170.693 252.792 170.673 252.778 170.656 252.761C170.639 252.744 170.626 252.723 170.617 252.7C170.607 252.677 170.603 252.653 170.603 252.628C170.603 252.604 170.607 252.579 170.617 252.556C170.626 252.534 170.639 252.513 170.656 252.495C170.673 252.478 170.693 252.464 170.715 252.455C170.737 252.446 170.761 252.441 170.785 252.441H234.076C234.124 252.441 234.17 252.461 234.203 252.496C234.237 252.531 234.256 252.579 234.256 252.628C234.256 252.678 234.237 252.725 234.203 252.76C234.17 252.795 234.124 252.815 234.076 252.815Z" fill="#CCCCCC"/>
<path d="M302.591 370.478V349.208C302.591 348.268 302.231 347.366 301.591 346.702C300.95 346.037 300.081 345.663 299.175 345.663H221.457C220.551 345.663 219.682 346.037 219.041 346.702C218.401 347.366 218.041 348.268 218.041 349.208V370.478H302.591Z" fill="#CCCCCC"/>
<path d="M302.591 378.454H218.041V405.926H302.591V378.454Z" fill="#CCCCCC"/>
<path d="M218.041 413.902V435.171C218.041 436.112 218.401 437.013 219.041 437.678C219.682 438.343 220.551 438.716 221.457 438.716H299.175C300.081 438.716 300.95 438.343 301.591 437.678C302.231 437.013 302.591 436.112 302.591 435.171V413.902H218.041Z" fill="#CCCCCC"/>
<path d="M259.889 361.615C261.304 361.615 262.451 360.425 262.451 358.957C262.451 357.488 261.304 356.298 259.889 356.298C258.474 356.298 257.327 357.488 257.327 358.957C257.327 360.425 258.474 361.615 259.889 361.615Z" fill="white"/>
<path d="M259.889 397.064C261.304 397.064 262.451 395.874 262.451 394.405C262.451 392.937 261.304 391.747 259.889 391.747C258.474 391.747 257.327 392.937 257.327 394.405C257.327 395.874 258.474 397.064 259.889 397.064Z" fill="white"/>
<path d="M260.026 431.762C261.441 431.762 262.588 430.572 262.588 429.104C262.588 427.635 261.441 426.445 260.026 426.445C258.611 426.445 257.464 427.635 257.464 429.104C257.464 430.572 258.611 431.762 260.026 431.762Z" fill="white"/>
<path d="M293.005 321.412V345.806H234.108C232.53 345.863 230.958 345.59 229.484 345.002C228.01 344.415 226.665 343.526 225.529 342.388C224.393 341.249 223.49 339.886 222.873 338.377C222.256 336.869 221.938 335.248 221.938 333.609C221.938 331.971 222.256 330.349 222.873 328.841C223.49 327.333 224.393 325.969 225.529 324.831C226.665 323.692 228.01 322.803 229.484 322.216C230.958 321.629 232.53 321.355 234.108 321.412H293.005Z" fill="#F2F2F2"/>
<path d="M294.452 345.618C294.452 345.867 294.357 346.106 294.187 346.282C294.018 346.458 293.788 346.557 293.548 346.557H233.059C231.432 346.558 229.82 346.227 228.316 345.581C226.812 344.936 225.445 343.989 224.294 342.796C223.142 341.602 222.229 340.184 221.606 338.624C220.983 337.064 220.662 335.392 220.662 333.703C220.662 332.014 220.983 330.342 221.606 328.782C222.229 327.221 223.142 325.804 224.294 324.61C225.445 323.417 226.812 322.47 228.316 321.825C229.82 321.179 231.432 320.848 233.059 320.849H293.548C293.788 320.849 294.018 320.948 294.187 321.124C294.357 321.3 294.452 321.539 294.452 321.788C294.452 322.036 294.357 322.275 294.187 322.451C294.018 322.627 293.788 322.726 293.548 322.726H233.059C230.255 322.728 227.567 323.886 225.585 325.944C223.603 328.003 222.49 330.793 222.49 333.703C222.49 336.613 223.603 339.403 225.585 341.462C227.567 343.52 230.255 344.678 233.059 344.68H293.548C293.788 344.68 294.018 344.779 294.187 344.955C294.357 345.131 294.452 345.37 294.452 345.618Z" fill="#3F3D56"/>
<path d="M293.005 327.041H229.714C229.69 327.041 229.666 327.036 229.644 327.027C229.622 327.017 229.602 327.004 229.585 326.986C229.568 326.969 229.555 326.948 229.546 326.925C229.537 326.903 229.532 326.878 229.532 326.853C229.532 326.829 229.537 326.804 229.546 326.781C229.555 326.759 229.568 326.738 229.585 326.721C229.602 326.703 229.622 326.689 229.644 326.68C229.666 326.671 229.69 326.666 229.714 326.666H293.005C293.053 326.667 293.099 326.686 293.132 326.722C293.166 326.757 293.185 326.804 293.185 326.853C293.185 326.903 293.166 326.95 293.132 326.985C293.099 327.02 293.053 327.04 293.005 327.041Z" fill="#CCCCCC"/>
<path d="M293.005 331.544H229.714C229.69 331.544 229.666 331.54 229.644 331.53C229.622 331.521 229.602 331.507 229.585 331.49C229.568 331.472 229.555 331.452 229.546 331.429C229.537 331.406 229.532 331.382 229.532 331.357C229.532 331.332 229.537 331.308 229.546 331.285C229.555 331.262 229.568 331.241 229.585 331.224C229.602 331.207 229.622 331.193 229.644 331.184C229.666 331.174 229.69 331.17 229.714 331.17H293.005C293.053 331.17 293.099 331.19 293.132 331.225C293.166 331.26 293.185 331.308 293.185 331.357C293.185 331.406 293.166 331.454 293.132 331.489C293.099 331.524 293.053 331.544 293.005 331.544Z" fill="#CCCCCC"/>
<path d="M293.005 336.048H229.714C229.69 336.048 229.666 336.043 229.644 336.034C229.622 336.024 229.602 336.011 229.585 335.993C229.568 335.976 229.555 335.955 229.546 335.932C229.537 335.91 229.532 335.885 229.532 335.86C229.532 335.836 229.537 335.811 229.546 335.788C229.555 335.766 229.568 335.745 229.585 335.728C229.602 335.71 229.622 335.696 229.644 335.687C229.666 335.678 229.69 335.673 229.714 335.673H293.005C293.053 335.674 293.099 335.693 293.132 335.728C293.166 335.764 293.185 335.811 293.185 335.86C293.185 335.91 293.166 335.957 293.132 335.992C293.099 336.027 293.053 336.047 293.005 336.048Z" fill="#CCCCCC"/>
<path d="M293.005 340.551H229.714C229.69 340.551 229.666 340.547 229.644 340.537C229.622 340.528 229.602 340.514 229.585 340.497C229.568 340.479 229.555 340.459 229.546 340.436C229.537 340.413 229.532 340.389 229.532 340.364C229.532 340.339 229.537 340.315 229.546 340.292C229.555 340.269 229.568 340.248 229.585 340.231C229.602 340.214 229.622 340.2 229.644 340.191C229.666 340.181 229.69 340.176 229.714 340.177H293.005C293.053 340.177 293.099 340.197 293.132 340.232C293.166 340.267 293.185 340.314 293.185 340.364C293.185 340.413 293.166 340.461 293.132 340.496C293.099 340.531 293.053 340.551 293.005 340.551Z" fill="#CCCCCC"/>
<path d="M213.606 162.197V6.66564C213.608 4.89842 214.285 3.20416 215.489 1.95455C216.694 0.704933 218.326 0.00201015 220.029 0H338.51C340.213 0.00202186 341.846 0.704949 343.05 1.95456C344.254 3.20417 344.932 4.89842 344.934 6.66564V162.197C344.932 163.964 344.254 165.658 343.05 166.908C341.846 168.158 340.213 168.861 338.51 168.863H220.029C218.326 168.861 216.694 168.158 215.489 166.908C214.285 165.658 213.608 163.964 213.606 162.197ZM220.029 1.48125C218.705 1.48279 217.435 2.0295 216.498 3.00143C215.562 3.97335 215.035 5.29113 215.033 6.66564V162.197C215.035 163.571 215.562 164.889 216.498 165.861C217.435 166.833 218.705 167.38 220.029 167.381H338.51C339.835 167.38 341.105 166.833 342.041 165.861C342.978 164.889 343.505 163.571 343.506 162.197V6.66564C343.505 5.29113 342.978 3.97335 342.041 3.00143C341.105 2.0295 339.835 1.4828 338.51 1.48125H220.029Z" fill="#E6E6E6"/>
<path d="M285.914 71.4272V39.4917C285.915 38.6081 286.253 37.7609 286.855 37.1361C287.458 36.5113 288.274 36.1598 289.126 36.1589H315.206C316.057 36.1598 316.874 36.5113 317.476 37.1361C318.078 37.7609 318.416 38.6081 318.417 39.4917V71.4272C318.416 72.3108 318.078 73.1579 317.476 73.7827C316.874 74.4075 316.057 74.759 315.206 74.76H289.126C288.274 74.759 287.458 74.4075 286.855 73.7827C286.253 73.1579 285.915 72.3108 285.914 71.4272Z" fill="#8363FF"/>
<path d="M235.238 86.2397V54.3042C235.239 53.4206 235.578 52.5735 236.18 51.9487C236.782 51.3239 237.599 50.9724 238.45 50.9714H264.53C265.382 50.9724 266.198 51.3239 266.8 51.9487C267.402 52.5735 267.741 53.4206 267.742 54.3042V86.2397C267.741 87.1233 267.402 87.9705 266.8 88.5953C266.198 89.2201 265.382 89.5716 264.53 89.5725H238.45C237.599 89.5716 236.782 89.2201 236.18 88.5953C235.578 87.9705 235.239 87.1233 235.238 86.2397Z" fill="#CCCCCC"/>
<path d="M275.921 131.418V99.4823C275.922 98.5987 276.261 97.7516 276.863 97.1268C277.465 96.502 278.282 96.1505 279.133 96.1495H305.213C306.065 96.1505 306.881 96.502 307.483 97.1268C308.085 97.7516 308.424 98.5987 308.425 99.4823V131.418C308.424 132.301 308.085 133.149 307.483 133.773C306.881 134.398 306.065 134.75 305.213 134.751H279.133C278.282 134.75 277.465 134.398 276.863 133.773C276.261 133.149 275.922 132.301 275.921 131.418Z" fill="#FF6584"/>
<path d="M431.774 277.425H404.94C404.685 277.424 404.434 277.485 404.206 277.602L397.433 281.12C397.21 281.218 397.02 281.383 396.886 281.592C396.753 281.802 396.682 282.048 396.682 282.299C396.682 282.55 396.753 282.796 396.886 283.005C397.02 283.215 397.21 283.379 397.433 283.477L404.206 286.996C404.434 287.113 404.685 287.173 404.94 287.173H431.774C432.144 287.195 432.507 287.065 432.785 286.812C433.064 286.558 433.234 286.2 433.26 285.817V278.781C433.234 278.397 433.064 278.04 432.785 277.786C432.507 277.532 432.144 277.402 431.774 277.425Z" fill="#3F3D56"/>
<path d="M433.26 278.781V285.817C433.234 286.2 433.064 286.558 432.785 286.812C432.507 287.065 432.144 287.195 431.774 287.173H426.428V277.425H431.774C432.144 277.402 432.507 277.532 432.785 277.786C433.064 278.04 433.234 278.397 433.26 278.781Z" fill="#8363FF"/>
<path d="M431.572 224.783C432.788 224.239 434.1 223.967 435.424 223.986C436.748 224.005 438.053 224.313 439.253 224.892C440.454 225.471 441.523 226.306 442.391 227.343C443.259 228.38 443.906 229.596 444.289 230.911C444.409 231.328 444.5 231.753 444.563 232.183L482.088 251.492L490.772 245.52L501.577 258.428L488.318 269.603C486.723 270.936 484.757 271.701 482.71 271.783C480.664 271.864 478.646 271.26 476.958 270.058L438.885 242.737C438.602 242.862 438.312 242.971 438.018 243.065C436.751 243.463 435.417 243.578 434.104 243.404C432.791 243.229 431.528 242.769 430.398 242.052C429.268 241.336 428.297 240.38 427.548 239.247C426.799 238.114 426.29 236.83 426.053 235.478C425.982 235.086 425.936 234.69 425.914 234.291C425.808 232.296 426.294 230.316 427.305 228.616C428.317 226.916 429.806 225.578 431.572 224.783Z" fill="#FFB8B8"/>
<path d="M509.73 343.668H468.727C468.727 344.891 426.469 345.884 426.469 345.884C425.806 346.402 425.201 346.997 424.667 347.656C423.062 349.643 422.185 352.154 422.19 354.746V356.518C422.191 359.456 423.316 362.273 425.318 364.35C427.32 366.427 430.035 367.595 432.866 367.596H509.73C512.561 367.593 515.274 366.426 517.276 364.349C519.278 362.272 520.403 359.455 520.406 356.518V354.746C520.402 351.809 519.276 348.994 517.274 346.917C515.273 344.841 512.56 343.672 509.73 343.668Z" fill="#3F3D56"/>
<path d="M465.129 441.598H476.231V367.156H465.129V441.598Z" fill="#3F3D56"/>
<path d="M433.529 441.194C433.529 442.438 450.353 441.675 471.107 441.675C491.861 441.675 508.685 442.438 508.685 441.194C508.685 439.949 491.861 430.077 471.107 430.077C450.353 430.077 433.529 439.949 433.529 441.194Z" fill="#3F3D56"/>
<path d="M443.552 432.468L433.082 432.468L428.1 404.288L443.553 404.289L443.552 432.468Z" fill="#FFB8B8"/>
<path d="M446.222 443L412.461 442.999V442.556C412.461 440.765 412.801 438.992 413.461 437.337C414.122 435.683 415.09 434.18 416.31 432.914C417.53 431.648 418.979 430.643 420.573 429.958C422.167 429.273 423.876 428.92 425.602 428.92H425.603L446.223 428.921L446.222 443Z" fill="#2F2E41"/>
<path d="M427.891 414.994L407.018 366.422C405.275 362.329 405.082 357.704 406.478 353.469C407.874 349.235 410.755 345.701 414.549 343.572L459.825 318.379L480.485 316.555L499.543 314.758L499.681 314.999C499.856 315.307 503.954 322.652 501.184 330.705C499.083 336.813 493.618 341.584 484.941 344.886C464.688 352.592 441.292 359.178 432.173 361.651C431.77 361.758 431.393 361.952 431.068 362.221C430.742 362.49 430.475 362.827 430.284 363.211C430.093 363.59 429.979 364.006 429.951 364.433C429.922 364.86 429.978 365.288 430.117 365.691L449.509 410.901C449.712 411.475 449.785 412.089 449.722 412.696C449.66 413.303 449.464 413.887 449.15 414.404C448.836 414.92 448.411 415.354 447.909 415.674C447.408 415.993 446.842 416.188 446.256 416.245L431.766 417.339C431.643 417.351 431.52 417.358 431.398 417.358C430.656 417.357 429.93 417.134 429.308 416.714C428.685 416.295 428.193 415.697 427.891 414.994Z" fill="#2F2E41"/>
<path d="M448.676 432.468L438.206 432.468L433.224 404.288L448.677 404.289L448.676 432.468Z" fill="#FFB8B8"/>
<path d="M451.346 443L417.585 442.999V442.556C417.585 440.765 417.925 438.992 418.586 437.337C419.246 435.683 420.214 434.18 421.434 432.914C422.654 431.648 424.103 430.643 425.697 429.958C427.292 429.273 429 428.92 430.726 428.92H430.727L451.347 428.921L451.346 443Z" fill="#2F2E41"/>
<path d="M433.87 417.653L412.996 369.081C411.253 364.987 411.061 360.362 412.456 356.128C413.852 351.893 416.734 348.36 420.527 346.231L465.803 321.037L486.464 319.214L505.521 317.416L505.659 317.658C505.835 317.966 509.932 325.31 507.162 333.363C505.061 339.472 499.597 344.243 490.92 347.544C470.666 355.25 447.27 361.836 438.151 364.31C437.748 364.417 437.372 364.611 437.046 364.88C436.721 365.149 436.454 365.486 436.263 365.869C436.071 366.248 435.958 366.665 435.929 367.091C435.9 367.518 435.957 367.947 436.095 368.35L455.487 413.56C455.69 414.133 455.763 414.747 455.701 415.355C455.638 415.962 455.442 416.546 455.128 417.062C454.814 417.579 454.389 418.013 453.888 418.332C453.386 418.651 452.82 418.847 452.234 418.903L437.744 419.998C437.621 420.01 437.498 420.016 437.377 420.016C436.634 420.016 435.908 419.793 435.286 419.373C434.664 418.954 434.172 418.356 433.87 417.653Z" fill="#2F2E41"/>
<path d="M423.466 269.272C414.694 257.166 407.76 243.737 402.904 229.453C402.623 228.599 402.643 227.668 402.961 226.828C403.278 225.987 403.873 225.291 404.639 224.863L434.655 208.174C435.141 207.902 435.68 207.749 436.231 207.725C436.782 207.702 437.332 207.81 437.837 208.04C438.351 208.272 438.808 208.623 439.173 209.066C439.537 209.509 439.799 210.032 439.939 210.596C443.432 224.36 449.999 237.078 459.109 247.72C459.483 248.153 459.758 248.67 459.912 249.23C460.066 249.79 460.094 250.379 459.995 250.952C459.9 251.516 459.682 252.05 459.358 252.514C459.034 252.977 458.613 253.358 458.125 253.627L428.11 270.316C427.342 270.74 426.454 270.869 425.603 270.678C424.753 270.487 423.995 269.989 423.466 269.272Z" fill="#CCCCCC"/>
<path d="M425.514 267.675C425.675 267.884 425.902 268.028 426.155 268.083C426.408 268.137 426.671 268.098 426.899 267.972L456.915 251.283C457.061 251.204 457.187 251.091 457.284 250.953C457.38 250.815 457.445 250.656 457.472 250.488C457.504 250.31 457.495 250.128 457.447 249.954C457.399 249.781 457.312 249.621 457.195 249.488C447.817 238.533 441.057 225.44 437.46 211.27C437.419 211.095 437.339 210.932 437.226 210.795C437.114 210.657 436.973 210.548 436.813 210.477C436.663 210.407 436.499 210.375 436.334 210.382C436.17 210.389 436.009 210.435 435.865 210.518L405.85 227.207C405.622 227.334 405.445 227.54 405.348 227.789C405.252 228.037 405.242 228.313 405.32 228.569C410.089 242.597 416.899 255.785 425.514 267.675Z" fill="white"/>
<path d="M523.182 264.821L499.675 274.09L493.936 257.547C493.174 255.351 493.184 252.945 493.966 250.756C494.748 248.567 496.25 246.735 498.208 245.584C500.188 244.419 502.504 244.028 504.738 244.481C506.972 244.933 508.976 246.2 510.389 248.051L523.182 264.821Z" fill="#8363FF"/>
<path d="M463.391 330.365C462.896 330.002 462.481 329.534 462.175 328.992C461.868 328.449 461.676 327.846 461.611 327.22C458.6 298.055 460.698 275.231 468.022 257.444C469.312 254.376 471.255 251.652 473.706 249.475C476.156 247.299 479.05 245.727 482.171 244.878L501.173 243.882L501.271 243.932C505.559 246.111 509.056 249.666 511.244 254.07C513.431 258.474 514.192 263.493 513.415 268.381C507.303 285.098 502.186 302.503 506.089 316.544C506.252 317.131 506.3 317.746 506.229 318.353C506.158 318.959 505.97 319.545 505.675 320.074C505.39 320.585 505.007 321.031 504.549 321.383C504.091 321.735 503.569 321.986 503.014 322.12L466.821 331.054C466.235 331.199 465.626 331.212 465.034 331.094C464.443 330.975 463.883 330.727 463.391 330.365Z" fill="#8363FF"/>
<path d="M494.831 236.518C506.416 236.518 515.807 226.773 515.807 214.751C515.807 202.73 506.416 192.985 494.831 192.985C483.246 192.985 473.855 202.73 473.855 214.751C473.855 226.773 483.246 236.518 494.831 236.518Z" fill="#FFB8B8"/>
<path d="M436.625 231.991L420.278 239.479C419.656 239.763 418.951 239.779 418.318 239.525C417.684 239.27 417.174 238.765 416.899 238.121L416.495 237.17C416.221 236.525 416.205 235.793 416.451 235.136C416.696 234.479 417.183 233.95 417.804 233.664L434.152 226.176C434.774 225.892 435.478 225.876 436.112 226.13C436.745 226.385 437.255 226.89 437.53 227.535L437.935 228.485C438.208 229.13 438.224 229.862 437.979 230.519C437.733 231.176 437.247 231.706 436.625 231.991Z" fill="#CCCCCC"/>
<path d="M442.604 243.512L426.256 251C425.634 251.284 424.929 251.3 424.296 251.046C423.663 250.791 423.152 250.286 422.877 249.641L422.473 248.691C422.199 248.046 422.184 247.314 422.429 246.657C422.674 246 423.161 245.47 423.782 245.185L440.13 237.697C440.752 237.413 441.457 237.396 442.09 237.651C442.723 237.906 443.234 238.411 443.509 239.055L443.913 240.006C444.187 240.651 444.202 241.383 443.957 242.04C443.712 242.697 443.225 243.226 442.604 243.512Z" fill="#CCCCCC"/>
<path d="M455.211 288.511L418.765 258.676C418.475 258.782 418.179 258.872 417.88 258.947C416.594 259.259 415.259 259.287 413.961 259.029C412.664 258.771 411.433 258.232 410.349 257.448C409.258 256.663 408.342 255.646 407.66 254.464C406.979 253.282 406.548 251.963 406.398 250.594C406.154 248.407 406.629 246.198 407.746 244.325C408.864 242.453 410.559 241.028 412.555 240.28C413.801 239.817 415.127 239.631 416.447 239.736C417.767 239.842 419.051 240.235 420.214 240.891C421.377 241.546 422.394 242.45 423.197 243.542C424 244.633 424.572 245.889 424.876 247.226C424.97 247.65 425.035 248.08 425.071 248.513L461.352 270.232L470.381 264.838L480.383 278.426L466.364 288.794C464.723 289.997 462.752 290.62 460.743 290.569C458.733 290.518 456.794 289.797 455.211 288.511Z" fill="#FFB8B8"/>
<path d="M484.83 282.657L464.035 267.983L473.808 253.621C475.106 251.713 477.011 250.344 479.188 249.753C481.365 249.163 483.673 249.39 485.704 250.395C487.758 251.411 489.395 253.156 490.318 255.315C491.241 257.473 491.39 259.903 490.738 262.166L484.83 282.657Z" fill="#8363FF"/>
<path d="M487.141 211.509C481.749 215.338 474.67 219.274 469.164 215.197C465.548 212.519 464.409 207.562 465.875 203.211C468.512 195.387 475.756 191.942 482.683 189.302C491.689 185.87 501.494 183.139 510.791 185.597C520.088 188.055 528.304 197.395 526.625 207.197C525.276 215.079 518.111 221.638 519.128 229.573C520.151 237.56 528.807 241.764 536.449 243.192C544.091 244.619 552.642 245.078 558.134 250.773C565.14 258.039 563.39 271.026 556.798 278.698C550.206 286.369 540.258 289.846 530.618 292.21C517.846 295.342 504.033 296.989 491.903 291.79C479.773 286.592 470.333 272.6 473.847 259.479C475.331 253.937 478.828 249.253 482.207 244.693C485.586 240.133 489.008 235.365 490.297 229.77C491.371 225.108 490.576 219.695 487.596 216.198C487.054 215.586 486.713 214.811 486.622 213.985C486.531 213.16 486.694 212.325 487.089 211.601L487.141 211.509Z" fill="#2F2E41"/>
<path d="M93.1527 317.265C87.7475 319.236 81.9441 319.73 76.3016 318.699C70.6591 317.667 65.3677 315.146 60.9371 311.376C49.6534 301.549 46.1157 285.358 43.2371 270.366C40.3991 255.586 37.561 240.805 34.7229 226.024L52.5483 238.76C65.3672 247.919 78.4749 257.372 87.3507 270.638C96.2265 283.905 100.101 302.015 92.9694 316.37" fill="#E6E6E6"/>
<path d="M91.629 370.951C93.4332 357.314 95.2883 343.502 94.0228 329.719C92.8989 317.479 89.3 305.523 81.9732 295.72C78.0841 290.527 73.3519 286.077 67.9892 282.571C66.5908 281.655 65.3037 283.955 66.696 284.867C75.975 290.952 83.152 299.938 87.1921 310.528C91.6544 322.306 92.371 335.144 91.6021 347.655C91.137 355.221 90.1515 362.737 89.1583 370.244C89.08 370.583 89.1289 370.941 89.295 371.245C89.4611 371.548 89.732 371.775 90.0531 371.879C90.3807 371.971 90.7298 371.925 91.0248 371.751C91.3198 371.577 91.5369 371.289 91.629 370.951H91.629Z" fill="#F2F2F2"/>
<path d="M74.2516 346.82C71.9335 350.476 68.747 353.451 64.9991 355.458C61.2513 357.466 57.0685 358.437 52.8537 358.28C42.0217 357.747 32.9913 349.902 24.8622 342.454L0.818024 320.425L16.7313 319.635C28.1752 319.067 39.9143 318.537 50.8142 322.199C61.7141 325.861 71.7666 334.674 73.7597 346.381" fill="#E6E6E6"/>
<path d="M96.7277 378.79C88.044 362.846 77.9716 345.126 59.974 339.462C54.9698 337.893 49.7226 337.33 44.5149 337.806C42.8736 337.952 43.2834 340.578 44.9217 340.431C53.651 339.679 62.3634 342.071 69.5921 347.204C76.5483 352.117 81.9643 358.948 86.5485 366.191C89.3564 370.628 91.8716 375.254 94.3872 379.872C95.1912 381.349 97.541 380.283 96.7277 378.79Z" fill="#F2F2F2"/>
<path d="M110.641 395.572C110.349 392.054 109.132 388.687 107.122 385.837C105.113 382.987 102.389 380.764 99.2462 379.41V370.193H84.3474V379.701C81.3595 381.121 78.788 383.339 76.8952 386.127C75.0023 388.915 73.8559 392.174 73.5726 395.572L70.0693 437.83H114.145L110.641 395.572Z" fill="#F2F2F2"/>
</g>
<defs>
<clipPath id="clip0">
<rect width="591" height="443" fill="white"/>
</clipPath>
</defs>
</svg>
